<?xml version="1.0" encoding="utf-8"?>
<!-- Generator: Adobe Illustrator 23.0.5, SVG Export Plug-In . SVG Version: 6.00 Build 0)  -->
<svg version="1.1" id="Layer_1" xmlns="http://www.w3.org/2000/svg" xmlns:xlink="http://www.w3.org/1999/xlink" x="0px" y="0px"
	 viewBox="0 0 1920 1080" enable-background="new 0 0 1920 1080" xml:space="preserve">
<polygon fill="#B3EAF5" stroke="#B3EAF5" points="0,994 0,1080 0,1080 "/>
<polygon fill="#CEE9F3" stroke="#CEE9F3" points="0,99 0,198 55,135 "/>
<polygon fill="#AFF2FA" stroke="#AFF2FA" points="0,1080 0,1080 0,895 "/>
<polygon fill="#B7F0F8" stroke="#B7F0F8" points="0,994 0,1080 99,1080 "/>
<polygon fill="#4683C1" stroke="#4683C1" points="0,0 0,99 99,0 "/>
<polygon fill="#7EC8D8" stroke="#7EC8D8" points="0,99 55,135 99,0 "/>
<polygon fill="#DFF0FB" stroke="#DFF0FB" points="0,198 0,298 210,215 "/>
<polygon fill="#C0E7F3" stroke="#C0E7F3" points="55,135 0,198 210,215 "/>
<polygon fill="#1561C8" stroke="#1561C8" points="0,596 0,696 230,585 "/>
<polygon fill="#1155BF" stroke="#1155BF" points="0,497 0,596 230,585 "/>
<polygon fill="#D4EFF9" stroke="#D4EFF9" points="0,298 0,397 210,215 "/>
<polygon fill="#7FD4E2" stroke="#7FD4E2" points="198,0 55,135 210,215 "/>
<polygon fill="#5597D0" stroke="#5597D0" points="99,0 55,135 198,0 "/>
<polygon fill="#94EEF5" stroke="#94EEF5" points="0,895 0,994 99,1080 "/>
<polygon fill="#2673E6" stroke="#2673E6" points="0,397 0,497 230,585 "/>
<polygon fill="#93EFF5" stroke="#93EFF5" points="0,895 99,1080 198,1080 "/>
<polygon fill="#7AD9F0" stroke="#7AD9F0" points="198,1080 298,1080 320,985 "/>
<polygon fill="#6DCEF2" stroke="#6DCEF2" points="0,895 198,1080 320,985 "/>
<polygon fill="#1D77D7" stroke="#1D77D7" points="0,696 0,795 230,585 "/>
<polygon fill="#4C90C8" stroke="#4C90C8" points="198,0 210,215 298,0 "/>
<polygon fill="#45BFF9" stroke="#45BFF9" points="210,215 230,585 375,485 "/>
<polygon fill="#51BEF6" stroke="#51BEF6" points="0,795 0,895 320,985 "/>
<polygon fill="#6FDEF8" stroke="#6FDEF8" points="210,215 0,397 230,585 "/>
<polygon fill="#65C1E9" stroke="#65C1E9" points="320,985 298,1080 397,1080 "/>
<polygon fill="#69CFEF" stroke="#69CFEF" points="298,0 210,215 350,220 "/>
<polygon fill="#58CCEA" stroke="#58CCEA" points="350,220 210,215 420,375 "/>
<polygon fill="#50C8F4" stroke="#50C8F4" points="210,215 375,485 420,375 "/>
<polygon fill="#4C8DCC" stroke="#4C8DCC" points="298,0 350,220 397,0 "/>
<polygon fill="#1F74C0" stroke="#1F74C0" points="230,585 0,795 320,985 "/>
<polygon fill="#5495D4" stroke="#5495D4" points="397,0 350,220 497,0 "/>
<polygon fill="#53A5DE" stroke="#53A5DE" points="320,985 397,1080 497,1080 "/>
<polygon fill="#7CCBF3" stroke="#7CCBF3" points="420,375 375,485 635,545 "/>
<polygon fill="#328FEF" stroke="#328FEF" points="497,1080 596,1080 665,995 "/>
<polygon fill="#BFE1E9" stroke="#BFE1E9" points="635,545 375,485 680,715 "/>
<polygon fill="#2273B9" stroke="#2273B9" points="230,585 320,985 680,715 "/>
<polygon fill="#57B3F5" stroke="#57B3F5" points="375,485 230,585 680,715 "/>
<polygon fill="#2988E9" stroke="#2988E9" points="665,995 596,1080 696,1080 "/>
<polygon fill="#3997EE" stroke="#3997EE" points="320,985 497,1080 665,995 "/>
<polygon fill="#99BBE8" stroke="#99BBE8" points="420,375 635,545 715,400 "/>
<polygon fill="#4AB4EF" stroke="#4AB4EF" points="680,715 665,995 720,790 "/>
<polygon fill="#3492E0" stroke="#3492E0" points="320,985 665,995 680,715 "/>
<polygon fill="#CDE9EE" stroke="#CDE9EE" points="635,545 680,715 730,565 "/>
<polygon fill="#4C93D0" stroke="#4C93D0" points="497,0 350,220 596,0 "/>
<polygon fill="#C0EFF6" stroke="#C0EFF6" points="730,565 680,715 760,590 "/>
<polygon fill="#0A3372" stroke="#0A3372" points="596,0 420,375 780,265 "/>
<polygon fill="#2E4F89" stroke="#2E4F89" points="420,375 715,400 780,265 "/>
<polygon fill="#B5D8E3" stroke="#B5D8E3" points="715,400 635,545 780,485 "/>
<polygon fill="#CFE3E9" stroke="#CFE3E9" points="635,545 730,565 780,485 "/>
<polygon fill="#2F7DD6" stroke="#2F7DD6" points="350,220 420,375 596,0 "/>
<polygon fill="#72CADD" stroke="#72CADD" points="696,0 780,265 795,0 "/>
<polygon fill="#39A1EF" stroke="#39A1EF" points="665,995 696,1080 795,1080 "/>
<polygon fill="#53A0D1" stroke="#53A0D1" points="696,0 596,0 780,265 "/>
<polygon fill="#B5E1E9" stroke="#B5E1E9" points="730,565 760,590 780,485 "/>
<polygon fill="#9BDCE9" stroke="#9BDCE9" points="795,0 780,265 895,0 "/>
<polygon fill="#37A8F1" stroke="#37A8F1" points="720,790 665,995 795,1080 "/>
<polygon fill="#669FDB" stroke="#669FDB" points="715,400 780,485 780,265 "/>
<polygon fill="#8EDCF1" stroke="#8EDCF1" points="680,715 720,790 760,590 "/>
<polygon fill="#46C8F5" stroke="#46C8F5" points="720,790 795,1080 895,1080 "/>
<polygon fill="#48D6F3" stroke="#48D6F3" points="720,790 895,1080 1050,990 "/>
<polygon fill="#78E5F3" stroke="#78E5F3" points="895,1080 994,1080 1050,990 "/>
<polygon fill="#6CEAF2" stroke="#6CEAF2" points="1050,990 994,1080 1093,1080 "/>
<polygon fill="#BEE6EF" stroke="#BEE6EF" points="895,0 780,265 994,0 "/>
<polygon fill="#63C7F0" stroke="#63C7F0" points="780,485 760,590 1150,620 "/>
<polygon fill="#4CC8F5" stroke="#4CC8F5" points="760,590 720,790 1165,710 "/>
<polygon fill="#44C3F5" stroke="#44C3F5" points="1150,620 760,590 1165,710 "/>
<polygon fill="#38C1F2" stroke="#38C1F2" points="720,790 1050,990 1165,710 "/>
<polygon fill="#B5E0EF" stroke="#B5E0EF" points="994,0 780,265 1220,190 "/>
<polygon fill="#81C9DC" stroke="#81C9DC" points="1093,0 994,0 1220,190 "/>
<polygon fill="#52BFEE" stroke="#52BFEE" points="1050,990 1093,1080 1193,1080 "/>
<polygon fill="#599EDA" stroke="#599EDA" points="1193,0 1093,0 1220,190 "/>
<polygon fill="#2A62A6" stroke="#2A62A6" points="1245,25 1225,15 1265,75 "/>
<polygon fill="#3170BC" stroke="#3170BC" points="1193,0 1220,190 1265,75 "/>
<polygon fill="#3269AA" stroke="#3269AA" points="1225,15 1193,0 1265,75 "/>
<polygon fill="#2861A7" stroke="#2861A7" points="1245,25 1265,75 1292,0 "/>
<polygon fill="#2D6AB1" stroke="#2D6AB1" points="1225,15 1245,25 1292,0 "/>
<polygon fill="#2F67AB" stroke="#2F67AB" points="1193,0 1225,15 1292,0 "/>
<polygon fill="#9AE5F1" stroke="#9AE5F1" points="780,265 780,485 1220,190 "/>
<polygon fill="#66CAF3" stroke="#66CAF3" points="780,485 1150,620 1220,190 "/>
<polygon fill="#6BE6F4" stroke="#6BE6F4" points="1150,620 1165,710 1340,665 "/>
<polygon fill="#80EFF9" stroke="#80EFF9" points="1340,665 1165,710 1345,715 "/>
<polygon fill="#21589A" stroke="#21589A" points="1292,0 1265,75 1345,45 "/>
<polygon fill="#2663AB" stroke="#2663AB" points="1292,0 1345,45 1392,0 "/>
<polygon fill="#2E78D2" stroke="#2E78D2" points="1220,190 1150,620 1395,440 "/>
<polygon fill="#67EEF9" stroke="#67EEF9" points="1165,710 1050,990 1193,1080 "/>
<polygon fill="#3A89DC" stroke="#3A89DC" points="1292,1080 1392,1080 1410,870 "/>
<polygon fill="#8CEBF8" stroke="#8CEBF8" points="1345,715 1165,710 1410,870 "/>
<polygon fill="#89F1F9" stroke="#89F1F9" points="1165,710 1193,1080 1410,870 "/>
<polygon fill="#4193E3" stroke="#4193E3" points="1193,1080 1292,1080 1410,870 "/>
<polygon fill="#4BB5ED" stroke="#4BB5ED" points="1150,620 1340,665 1395,440 "/>
<polygon fill="#225293" stroke="#225293" points="1265,75 1220,190 1345,45 "/>
<polygon fill="#2464B3" stroke="#2464B3" points="1410,870 1392,1080 1491,1080 "/>
<polygon fill="#174275" stroke="#174275" points="1392,0 1345,45 1491,0 "/>
<polygon fill="#2258A1" stroke="#2258A1" points="1491,0 1345,45 1565,165 "/>
<polygon fill="#1B4E94" stroke="#1B4E94" points="1345,45 1220,190 1565,165 "/>
<polygon fill="#1C4B92" stroke="#1C4B92" points="1220,190 1395,440 1565,165 "/>
<polygon fill="#3992E9" stroke="#3992E9" points="1395,440 1340,665 1600,480 "/>
<polygon fill="#1E579F" stroke="#1E579F" points="1491,0 1565,165 1591,0 "/>
<polygon fill="#14428E" stroke="#14428E" points="1410,870 1491,1080 1591,1080 "/>
<polygon fill="#2055A2" stroke="#2055A2" points="1565,165 1395,440 1600,480 "/>
<polygon fill="#0B2E79" stroke="#0B2E79" points="1410,870 1591,1080 1710,920 "/>
<polygon fill="#3E90E3" stroke="#3E90E3" points="1340,665 1345,715 1720,655 "/>
<polygon fill="#2E74C5" stroke="#2E74C5" points="1600,480 1340,665 1720,655 "/>
<polygon fill="#2C6ABE" stroke="#2C6ABE" points="1345,715 1410,870 1720,655 "/>
<polygon fill="#184293" stroke="#184293" points="1591,1080 1690,1080 1710,920 "/>
<polygon fill="#2667BC" stroke="#2667BC" points="1591,0 1565,165 1690,0 "/>
<polygon fill="#2771C9" stroke="#2771C9" points="1690,0 1565,165 1750,65 "/>
<polygon fill="#0B2C80" stroke="#0B2C80" points="1410,870 1710,920 1720,655 "/>
<polygon fill="#2963B3" stroke="#2963B3" points="1710,920 1690,1080 1790,1080 "/>
<polygon fill="#3685BF" stroke="#3685BF" points="1690,0 1750,65 1790,0 "/>
<polygon fill="#214D95" stroke="#214D95" points="1565,165 1600,480 1880,280 "/>
<polygon fill="#2F70C1" stroke="#2F70C1" points="1750,65 1565,165 1880,280 "/>
<polygon fill="#236EC3" stroke="#236EC3" points="1600,480 1720,655 1920,497 "/>
<polygon fill="#1D65B8" stroke="#1D65B8" points="1600,480 1920,497 1920,397 "/>
<polygon fill="#2768B9" stroke="#2768B9" points="1880,280 1600,480 1920,397 "/>
<polygon fill="#1A5AA1" stroke="#1A5AA1" points="1920,497 1720,655 1920,596 "/>
<polygon fill="#3F8ED7" stroke="#3F8ED7" points="1720,655 1905,715 1920,596 "/>
<polygon fill="#59ABD2" stroke="#59ABD2" points="1920,596 1905,715 1920,696 "/>
<polygon fill="#539AC7" stroke="#539AC7" points="1905,715 1720,655 1920,795 "/>
<polygon fill="#4A89DD" stroke="#4A89DD" points="1720,655 1710,920 1920,795 "/>
<polygon fill="#86C5E5" stroke="#86C5E5" points="1920,696 1905,715 1920,795 "/>
<polygon fill="#4D9ECC" stroke="#4D9ECC" points="1750,65 1880,280 1920,198 "/>
<polygon fill="#81D6EA" stroke="#81D6EA" points="1920,795 1710,920 1920,895 "/>
<polygon fill="#60A7CE" stroke="#60A7CE" points="1889,0 1790,0 1920,99 "/>
<polygon fill="#4EA7CE" stroke="#4EA7CE" points="1790,0 1750,65 1920,99 "/>
<polygon fill="#5EAFD3" stroke="#5EAFD3" points="1750,65 1920,198 1920,99 "/>
<polygon fill="#73B4DB" stroke="#73B4DB" points="1920,0 1889,0 1920,99 "/>
<polygon fill="#3779BE" stroke="#3779BE" points="1790,1080 1889,1080 1920,994 "/>
<polygon fill="#71C3E0" stroke="#71C3E0" points="1920,895 1710,920 1920,994 "/>
<polygon fill="#4C93DA" stroke="#4C93DA" points="1710,920 1790,1080 1920,994 "/>
<polygon fill="#4386C2" stroke="#4386C2" points="1889,1080 1915,1075 1920,994 "/>
<polygon fill="#2866A8" stroke="#2866A8" points="1915,1075 1889,1080 1920,1080 "/>
<polygon fill="#4793CE" stroke="#4793CE" points="1920,994 1915,1075 1920,1080 "/>
<polygon fill="#53B0D3" stroke="#53B0D3" points="1920,198 1880,280 1920,298 "/>
<polygon fill="#419ACB" stroke="#419ACB" points="1880,280 1920,397 1920,298 "/>
</svg>
